<?xml version="1.0" encoding="utf-8"?>
<!-- Generator: Adobe Illustrator 24.1.0, SVG Export Plug-In . SVG Version: 6.00 Build 0)  -->
<svg version="1.1" id="Layer_1" xmlns="http://www.w3.org/2000/svg" xmlns:xlink="http://www.w3.org/1999/xlink" x="0px" y="0px"
	 viewBox="0 0 600 600" style="enable-background:new 0 0 600 600;" xml:space="preserve">
<style type="text/css">
	.st0{clip-path:url(#SVGID_2_);fill:#8B4E5F;}
	.st1{clip-path:url(#SVGID_4_);fill:#C5909F;}
	.st2{clip-path:url(#SVGID_6_);fill:#E3C4A6;}
	.st3{clip-path:url(#SVGID_8_);fill:#F5F5F2;}
	.st4{clip-path:url(#SVGID_10_);fill:#4D352D;}
	.st5{clip-path:url(#SVGID_12_);fill:#F5F5F2;}
	.st6{clip-path:url(#SVGID_14_);fill:none;stroke:#4B3735;stroke-linecap:round;stroke-linejoin:round;stroke-miterlimit:10;}
	.st7{clip-path:url(#SVGID_16_);fill:none;stroke:#4D352D;stroke-linecap:round;stroke-miterlimit:10;}
	.st8{clip-path:url(#SVGID_18_);fill:#4D352D;}
	.st9{clip-path:url(#SVGID_20_);fill:#4D352D;}
	.st10{clip-path:url(#SVGID_22_);fill:none;stroke:#4D352D;stroke-linecap:round;stroke-miterlimit:10;}
	.st11{clip-path:url(#SVGID_24_);fill:none;stroke:#4D352D;stroke-linecap:round;stroke-miterlimit:10;}
	.st12{clip-path:url(#SVGID_26_);fill:#4D352D;}
	.st13{clip-path:url(#SVGID_28_);fill:#4D352D;}
	.st14{clip-path:url(#SVGID_30_);fill:none;stroke:#4D352D;stroke-miterlimit:10;}
	.st15{clip-path:url(#SVGID_32_);fill:#E3C4A6;}
	.st16{fill:#8B4E5F;}
	.st17{font-family:'AdobeGothicStd-Bold-KSCpc-EUC-H';}
	.st18{font-size:47px;}
</style>
<g>
	<g>
		<g>
			<defs>
				<path id="SVGID_1_" d="M555.9,300.9c0,141.7-113.1,256.6-252.6,256.6c-139.5,0-252.6-114.9-252.6-256.6
					c0-141.7,113.1-256.6,252.6-256.6C442.8,44.3,555.9,159.2,555.9,300.9z"/>
			</defs>
			<clipPath id="SVGID_2_">
				<use xlink:href="#SVGID_1_"  style="overflow:visible;"/>
			</clipPath>
			<path class="st0" d="M302.2,50.8c-34.8,0-68,7-98.1,19.7C306.4,158.1,488.6,341.9,391,471c-31.5,41.7-69,69.4-108.2,86.5
				c6.4,0.5,12.9,0.8,19.4,0.8c140.1,0,253.7-113.6,253.7-253.7C555.9,164.4,442.3,50.8,302.2,50.8z"/>
		</g>
		<g>
			<defs>
				<path id="SVGID_3_" d="M555.9,300.9c0,141.7-113.1,256.6-252.6,256.6c-139.5,0-252.6-114.9-252.6-256.6
					c0-141.7,113.1-256.6,252.6-256.6C442.8,44.3,555.9,159.2,555.9,300.9z"/>
			</defs>
			<clipPath id="SVGID_4_">
				<use xlink:href="#SVGID_3_"  style="overflow:visible;"/>
			</clipPath>
			<path class="st1" d="M391,471C488.6,341.9,306.4,158.1,204,70.5c-91.4,38.4-155.6,128.7-155.6,234c0,133.6,103.3,243,234.3,252.9
				C322,540.4,359.4,512.7,391,471z"/>
		</g>
		<g>
			<defs>
				<path id="SVGID_5_" d="M555.9,300.9c0,141.7-113.1,256.6-252.6,256.6c-139.5,0-252.6-114.9-252.6-256.6
					c0-141.7,113.1-256.6,252.6-256.6C442.8,44.3,555.9,159.2,555.9,300.9z"/>
			</defs>
			<clipPath id="SVGID_6_">
				<use xlink:href="#SVGID_5_"  style="overflow:visible;"/>
			</clipPath>
			<path class="st2" d="M335.9,376c-8.8-18.6,10.2-51.2,10.2-51.2c-3.3,7-12.6,34-12.6,34l2.2,3.5c0,0,8.5,10,13.7,13.7
				c5.1,3.7,14.4,19.1,14.4,20.9c0,1.9-0.9,17.7-2.8,23.3c-1.9,5.6-21.4,6.5-35.4,5.1c-14-1.4-14.4-3.3-20.5-6.5
				s-38.2-27.5-41.9-32.1s-3.3-32.1-3.3-32.1s11.4-11.5,14.4-11.6c2.9-0.2,2.9,0,2.9,0s-2.8-5.1-3.7-11.2
				c-0.9-6.1-7.4-12.6-8.8-16.3c-1.4-3.7-11.6-13-14-15.8c-2.3-2.8-10.2-14.4-14-19.1s-3.7-22.3-5.2-38.6
				c-1.5-16.3,8-30.3,18.7-50.3c10.7-20,29.8-31.7,58.7-36.8c28.9-5.1,67.5,21.4,67.5,21.4l11.6,38.2c0,0,36.3,61.4,0,93.1
				c-36.3,31.7-79.1,7.6-82.4-2.8"/>
		</g>
		<g>
			<defs>
				<path id="SVGID_7_" d="M555.9,300.9c0,141.7-113.1,256.6-252.6,256.6c-139.5,0-252.6-114.9-252.6-256.6
					c0-141.7,113.1-256.6,252.6-256.6C442.8,44.3,555.9,159.2,555.9,300.9z"/>
			</defs>
			<clipPath id="SVGID_8_">
				<use xlink:href="#SVGID_7_"  style="overflow:visible;"/>
			</clipPath>
			<path class="st3" d="M174.8,376c0,0-95.6,105.5-91.9,147.7c3.7,42.2,160.1,49.7,160.1,49.7l121.4,11.2l48.6-6.2l57.1-1.2
				l2.5-78.2c0,0-63.9-107.1-90.5-104.3c-26.5,2.8-64.5,48.4-64.5,48.4L174.8,376z"/>
		</g>
		<g>
			<defs>
				<path id="SVGID_9_" d="M555.9,300.9c0,141.7-113.1,256.6-252.6,256.6c-139.5,0-252.6-114.9-252.6-256.6
					c0-141.7,113.1-256.6,252.6-256.6C442.8,44.3,555.9,159.2,555.9,300.9z"/>
			</defs>
			<clipPath id="SVGID_10_">
				<use xlink:href="#SVGID_9_"  style="overflow:visible;"/>
			</clipPath>
			<path class="st4" d="M346.1,171.6c0,0,23.3,36.8,13.5,46.1c-9.8,9.3-21.6,11.4-23.7,0s-16.1-26.3-17.5-21.6s4.9,22.1-3.5,30.7
				c-8.4,8.6-14.2,12.6-21.2,14.9c-7,2.3-13.3,5.6-14.9,2.8c-1.6-2.8,7.4-18.4,1.9-30c-5.6-11.6-10.9,34.9-9.7,37.4
				c1.2,2.5-6.8-10.6-10.6-5.6s-1.9,26.7,3.7,28.6c5.6,1.9,9.3,24.2,24.2,6.8c0,0-1,12.9-4,27c-1.9,8.7-7.6,32-9.9,36.2
				s-2.4,31.2-2.4,31.2l-65.6-4.7c0,0-5.1-118.7,20.5-174.6c25.6-55.9,60.5-67.5,88.9-65.6c28.4,1.9,48.9,24.2,66.1,21.9
				c17.2-2.3,20.9,45.6,11.2,54c-9.8,8.4-12.9,2.8-14.9-3.3C376.2,197.7,355.4,171.6,346.1,171.6z"/>
		</g>
		<g>
			<defs>
				<path id="SVGID_11_" d="M555.9,300.9c0,141.7-113.1,256.6-252.6,256.6c-139.5,0-252.6-114.9-252.6-256.6
					c0-141.7,113.1-256.6,252.6-256.6C442.8,44.3,555.9,159.2,555.9,300.9z"/>
			</defs>
			<clipPath id="SVGID_12_">
				<use xlink:href="#SVGID_11_"  style="overflow:visible;"/>
			</clipPath>
			<path class="st5" d="M333.5,362c0,0,19.5,17.7,0,39.1c0,0-7.9,14-22.3-14.9c-14.4-28.9-30.3-26.5-39.1-35.8
				c-8.8-9.3,1.9-7,5.1-7.4c3.3-0.5-24.2,0.9-25.6,2.8c-1.4,1.9-17.2-18.6-33.4-2.9c-16.1,15.8-43.4,22-43.4,33.1
				c0,11.2-22.3,48.4-18.6,62.1s275.6,39.7,275.6,39.7l160.1,115.5c0,0-6.2-41-14.9-38.5c-8.7,2.5-6.2-2.5-23.6,0
				c-17.4,2.5-158.9-156.4-166.3-167.6c-7.4-11.2-23.6-21.1-31-22.3c-7.4-1.2-7.4-1.2-7.4-1.2L333.5,362z"/>
		</g>
		<g>
			<defs>
				<path id="SVGID_13_" d="M555.9,300.9c0,141.7-113.1,256.6-252.6,256.6c-139.5,0-252.6-114.9-252.6-256.6
					c0-141.7,113.1-256.6,252.6-256.6C442.8,44.3,555.9,159.2,555.9,300.9z"/>
			</defs>
			<clipPath id="SVGID_14_">
				<use xlink:href="#SVGID_13_"  style="overflow:visible;"/>
			</clipPath>
			<path class="st6" d="M288.4,409.5c0,0-23.5-51.3-36-62.8s-16-14.3-20.9-13.5"/>
		</g>
		<g>
			<defs>
				<path id="SVGID_15_" d="M555.9,300.9c0,141.7-113.1,256.6-252.6,256.6c-139.5,0-252.6-114.9-252.6-256.6
					c0-141.7,113.1-256.6,252.6-256.6C442.8,44.3,555.9,159.2,555.9,300.9z"/>
			</defs>
			<clipPath id="SVGID_16_">
				<use xlink:href="#SVGID_15_"  style="overflow:visible;"/>
			</clipPath>
			<path class="st7" d="M387.5,269.9c0,0-10.2,35-43.2,9.5"/>
		</g>
		<g>
			<defs>
				<path id="SVGID_17_" d="M555.9,300.9c0,141.7-113.1,256.6-252.6,256.6c-139.5,0-252.6-114.9-252.6-256.6
					c0-141.7,113.1-256.6,252.6-256.6C442.8,44.3,555.9,159.2,555.9,300.9z"/>
			</defs>
			<clipPath id="SVGID_18_">
				<use xlink:href="#SVGID_17_"  style="overflow:visible;"/>
			</clipPath>
			<path class="st8" d="M358.2,225.6c0,0,0.5,14.4,6.3,18.2"/>
		</g>
		<g>
			<defs>
				<path id="SVGID_19_" d="M555.9,300.9c0,141.7-113.1,256.6-252.6,256.6c-139.5,0-252.6-114.9-252.6-256.6
					c0-141.7,113.1-256.6,252.6-256.6C442.8,44.3,555.9,159.2,555.9,300.9z"/>
			</defs>
			<clipPath id="SVGID_20_">
				<use xlink:href="#SVGID_19_"  style="overflow:visible;"/>
			</clipPath>
			<path class="st9" d="M374.5,255.4c0,0,10.7,8.8,0,12.1"/>
		</g>
		<g>
			<defs>
				<path id="SVGID_21_" d="M555.9,300.9c0,141.7-113.1,256.6-252.6,256.6c-139.5,0-252.6-114.9-252.6-256.6
					c0-141.7,113.1-256.6,252.6-256.6C442.8,44.3,555.9,159.2,555.9,300.9z"/>
			</defs>
			<clipPath id="SVGID_22_">
				<use xlink:href="#SVGID_21_"  style="overflow:visible;"/>
			</clipPath>
			<path class="st10" d="M333.5,223.3c0,0-20.9,2.8-28.9,20.5"/>
		</g>
		<g>
			<defs>
				<path id="SVGID_23_" d="M555.9,300.9c0,141.7-113.1,256.6-252.6,256.6c-139.5,0-252.6-114.9-252.6-256.6
					c0-141.7,113.1-256.6,252.6-256.6C442.8,44.3,555.9,159.2,555.9,300.9z"/>
			</defs>
			<clipPath id="SVGID_24_">
				<use xlink:href="#SVGID_23_"  style="overflow:visible;"/>
			</clipPath>
			<path class="st11" d="M364.5,218.2c0,0,11.9-16.3,23.5-3.7"/>
		</g>
		<g>
			<defs>
				<path id="SVGID_25_" d="M555.9,300.9c0,141.7-113.1,256.6-252.6,256.6c-139.5,0-252.6-114.9-252.6-256.6
					c0-141.7,113.1-256.6,252.6-256.6C442.8,44.3,555.9,159.2,555.9,300.9z"/>
			</defs>
			<clipPath id="SVGID_26_">
				<use xlink:href="#SVGID_25_"  style="overflow:visible;"/>
			</clipPath>
			<path class="st12" d="M337.2,245.4c0,4.4-2.3,8-5.1,8c-2.8,0-5.1-3.6-5.1-8c0-4.4,2.3-8,5.1-8C335,237.4,337.2,241,337.2,245.4z"
				/>
		</g>
		<g>
			<defs>
				<path id="SVGID_27_" d="M555.9,300.9c0,141.7-113.1,256.6-252.6,256.6c-139.5,0-252.6-114.9-252.6-256.6
					c0-141.7,113.1-256.6,252.6-256.6C442.8,44.3,555.9,159.2,555.9,300.9z"/>
			</defs>
			<clipPath id="SVGID_28_">
				<use xlink:href="#SVGID_27_"  style="overflow:visible;"/>
			</clipPath>
			<ellipse class="st13" cx="378.5" cy="232" rx="5.1" ry="8"/>
		</g>
		<g>
			<defs>
				<path id="SVGID_29_" d="M555.9,300.9c0,141.7-113.1,256.6-252.6,256.6c-139.5,0-252.6-114.9-252.6-256.6
					c0-141.7,113.1-256.6,252.6-256.6C442.8,44.3,555.9,159.2,555.9,300.9z"/>
			</defs>
			<clipPath id="SVGID_30_">
				<use xlink:href="#SVGID_29_"  style="overflow:visible;"/>
			</clipPath>
			<path class="st14" d="M275.3,261.5c0,4.7-3.3,13,2.8,14"/>
		</g>
		<g>
			<defs>
				<path id="SVGID_31_" d="M555.9,300.9c0,141.7-113.1,256.6-252.6,256.6c-139.5,0-252.6-114.9-252.6-256.6
					c0-141.7,113.1-256.6,252.6-256.6C442.8,44.3,555.9,159.2,555.9,300.9z"/>
			</defs>
			<clipPath id="SVGID_32_">
				<use xlink:href="#SVGID_31_"  style="overflow:visible;"/>
			</clipPath>
			<path class="st15" d="M354.9,312.2c0,0-27.4,38.7-19.5,62.8l-38.2-86.3l51.2,16.1L354.9,312.2z"/>
		</g>
	</g>
	<g>
		<text transform="matrix(1 0 0 1 261.8174 485.2422)" class="st16 st17 st18">LIJUNMI</text>
	</g>
</g>
</svg>
